<svg xmlns="http://www.w3.org/2000/svg" xmlns:xlink="http://www.w3.org/1999/xlink" width="1097.559" height="356" viewBox="0 0 1097.559 356"><defs><clipPath id="clip-path"><rect id="Rectangle_762" data-name="Rectangle 762" width="1097.559" height="356" transform="translate(459 94)" fill="none"/></clipPath><linearGradient id="linear-gradient" x1="1" y1="-0.295" x2="0" y2="-0.295" gradientUnits="objectBoundingBox"><stop offset="0" stop-color="#fff"/><stop offset="0.968" stop-color="#fff" stop-opacity="0.078"/><stop offset="1" stop-color="#fff" stop-opacity="0.051"/></linearGradient><linearGradient id="linear-gradient-2" x1="0.407" y1="0.077" x2="0.593" y2="-0.977" gradientUnits="objectBoundingBox"><stop offset="0" stop-color="#fff" stop-opacity="0.051"/><stop offset="1" stop-color="#fff"/></linearGradient><linearGradient id="linear-gradient-3" x1="0.404" y1="-0.7" x2="0.597" y2="-0.507" gradientUnits="objectBoundingBox"><stop offset="0" stop-color="#fff"/><stop offset="1" stop-color="#fff" stop-opacity="0.102"/></linearGradient><linearGradient id="linear-gradient-4" x1="0.233" y1="-0.183" x2="0.767" y2="-0.718" gradientUnits="objectBoundingBox"><stop offset="0" stop-color="#fff"/><stop offset="1" stop-color="#fff" stop-opacity="0.051"/></linearGradient><linearGradient id="linear-gradient-5" x1="0.596" y1="-0.699" x2="0.403" y2="-0.506" xlink:href="#linear-gradient-3"/></defs><g id="Group_14026" data-name="Group 14026" transform="translate(-459 -94)" clip-path="url(#clip-path)"><g id="Group_14025" data-name="Group 14025" transform="translate(439.539 107.432)"><path id="Path_70207" data-name="Path 70207" d="M58.007,651.131c0,299.469,227.071,550.046,525.011,579.443,297.855,29.43,569.545-171.9,628.1-465.508S1095.982,181.313,809.543,94.218,217.307,151.476,102.507,427.979a583.836,583.836,0,0,0-44.5,223.152Zm-.107,0C58.121,351.656,285.439,101.172,583.487,71.98s569.647,172.426,627.97,466.167-115.646,583.828-402.239,670.717-592.363-57.749-706.979-334.422A583.806,583.806,0,0,1,57.9,651.131Z" transform="translate(-57.9 -68.932)" opacity="0.5" fill="url(#linear-gradient)"/><path id="Path_70208" data-name="Path 70208" d="M380.855,911.839c44.868,44.385,93.77,84.84,146.944,118.945a801.957,801.957,0,0,0,82.373,46.622,678.947,678.947,0,0,0,87.729,35.449,554.9,554.9,0,0,0,92.082,21.585c31.23,4.428,62.987,5.956,94.426,3.057,31.415-2.821,62.54-9.806,91.712-21.849a240.224,240.224,0,0,0,130.432-130.381c12.056-29.15,19.018-60.249,21.813-91.637,2.875-31.417,1.346-63.123-3.111-94.327a553.017,553.017,0,0,0-21.628-91.981,673.937,673.937,0,0,0-35.532-87.632,799.04,799.04,0,0,0-46.659-82.256C987.3,484.327,946.818,435.491,902.373,390.713c-44.842-44.383-93.717-84.84-146.865-118.916a795,795,0,0,0-82.322-46.6,679.05,679.05,0,0,0-87.7-35.447,554.472,554.472,0,0,0-92.028-21.587c-31.2-4.427-62.934-5.956-94.348-3.081-31.388,2.792-62.487,9.776-91.632,21.82A240.455,240.455,0,0,0,177.122,317.1c-12.054,29.12-19.07,60.2-21.891,91.559-2.9,31.414-1.4,63.121,3.033,94.3a553.582,553.582,0,0,0,21.548,92.006,672.614,672.614,0,0,0,35.451,87.658,799.846,799.846,0,0,0,46.608,82.31C295.976,818.12,336.436,867.01,380.855,911.839Zm-.078.081c-44.472-44.779-85.012-93.642-119.2-146.748a798.235,798.235,0,0,1-46.74-82.308,677.6,677.6,0,0,1-35.582-87.685,553.537,553.537,0,0,1-21.706-92.086c-4.46-31.232-6.015-63.017-3.14-94.485,2.8-31.441,9.76-62.62,21.84-91.875A240.522,240.522,0,0,1,307.08,185.957c29.278-12.071,60.482-19.082,91.947-21.877,31.522-2.872,63.306-1.344,94.587,3.111A552.891,552.891,0,0,1,585.8,188.829a679.239,679.239,0,0,1,87.809,35.527,805.76,805.76,0,0,1,82.427,46.676c53.2,34.131,102.13,74.64,146.969,119.075,44.445,44.83,84.961,93.746,119.09,146.906a800.667,800.667,0,0,1,46.688,82.361,677.717,677.717,0,0,1,35.529,87.736,554.736,554.736,0,0,1,21.629,92.086c4.43,31.233,5.961,62.99,3.059,94.458-2.821,31.444-9.813,62.6-21.92,91.8A240.659,240.659,0,0,1,976.332,1116.07c-29.225,12.071-60.4,19.055-91.869,21.848-31.493,2.872-63.25,1.343-94.507-3.109a554.9,554.9,0,0,1-92.133-21.638,678.153,678.153,0,0,1-87.755-35.529,796.345,796.345,0,0,1-82.376-46.674C474.518,996.81,425.616,956.328,380.777,911.92Z" transform="translate(-57.9 -68.932)" fill="url(#linear-gradient-2)"/><path id="Path_70209" data-name="Path 70209" d="M722.667,570.3Q668.5,516.258,611.623,465.037c-37.957-34.079-76.861-67.1-117.034-98.57-40.2-31.391-81.5-61.488-125.1-87.975-21.84-13.152-44.234-25.512-67.84-35.21-11.791-4.824-23.952-8.936-36.479-11.1a69.523,69.523,0,0,0-18.992-.817A36.659,36.659,0,0,0,237,233.714a25.563,25.563,0,0,0-7.861,5.164,26.082,26.082,0,0,0-5.169,7.855,36.333,36.333,0,0,0-2.348,9.171,69.27,69.27,0,0,0,.843,18.95c2.19,12.545,6.3,24.669,11.133,36.45,9.733,23.561,22.1,45.938,35.264,67.734,26.535,43.539,56.684,84.813,88.125,124.952,31.519,40.085,64.6,78.961,98.728,116.859s69.342,74.825,105.4,110.905Q615.274,785.8,672.129,837.017c37.957,34.078,76.862,67.1,116.981,98.6,40.171,31.39,81.476,61.488,125.052,87.974,21.813,13.152,44.207,25.512,67.787,35.211,11.764,4.824,23.9,8.909,36.425,11.1a69.009,69.009,0,0,0,18.914.816,36.892,36.892,0,0,0,9.1-2.318,23.019,23.019,0,0,0,12.9-12.887,35.819,35.819,0,0,0,2.321-9.094,68.809,68.809,0,0,0-.819-18.9c-2.163-12.518-6.277-24.642-11.077-36.423-9.682-23.561-22.051-45.938-35.186-67.76-26.482-43.566-56.579-84.864-87.994-125.03-31.466-40.139-64.516-79.014-98.594-116.966Q776.859,624.367,722.667,570.3Zm.053-.078Q776.885,624.3,828.2,681.073c34.132,37.9,67.262,76.747,98.808,116.833,31.466,40.139,61.642,81.386,88.23,124.952,13.215,21.823,25.611,44.224,35.371,67.838,4.853,11.808,8.994,23.986,11.184,36.608a69.8,69.8,0,0,1,.843,19.188,37.432,37.432,0,0,1-2.4,9.383,23.859,23.859,0,0,1-13.451,13.441,37.359,37.359,0,0,1-9.39,2.4,69.953,69.953,0,0,1-19.2-.846c-12.635-2.187-24.82-6.323-36.638-11.174-23.633-9.752-46.078-22.112-67.918-35.29-43.626-26.54-84.958-56.665-125.131-88.079-40.144-31.495-79.051-64.572-117.006-98.675S596.593,768.363,560.483,732.31Q506.393,678.188,455.1,621.325C421,583.4,387.922,544.5,356.4,504.386c-31.441-40.166-61.563-81.467-88.1-125.059-13.188-21.823-25.558-44.224-35.291-67.838-4.826-11.808-8.967-23.956-11.13-36.581a69.185,69.185,0,0,1-.819-19.109,37.723,37.723,0,0,1,2.374-9.3,26.671,26.671,0,0,1,5.276-8.039,26.2,26.2,0,0,1,8.044-5.271,36.552,36.552,0,0,1,9.312-2.372,69.418,69.418,0,0,1,19.123.843c12.608,2.187,24.793,6.326,36.584,11.147,23.633,9.726,46.027,22.112,67.867,35.291,43.6,26.54,84.9,56.664,125.078,88.082,40.144,31.492,79.025,64.569,116.979,98.674q56.979,51.191,111.023,105.367Z" transform="translate(-57.9 -68.932)" fill="url(#linear-gradient-3)"/><path id="Path_70210" data-name="Path 70210" d="M902.664,911.839c44.419-44.829,84.908-93.692,119.037-146.825a799.825,799.825,0,0,0,46.662-82.307,678.319,678.319,0,0,0,35.475-87.659,553.614,553.614,0,0,0,21.6-92.008c4.431-31.206,5.962-62.937,3.06-94.354-2.824-31.388-9.813-62.487-21.867-91.637A240.235,240.235,0,0,0,976.15,186.722c-29.172-12.046-60.3-19-91.712-21.8-31.439-2.875-63.172-1.346-94.4,3.108a554.107,554.107,0,0,0-92.052,21.612,674.815,674.815,0,0,0-87.7,35.5,799.787,799.787,0,0,0-82.322,46.623c-53.15,34.1-102.026,74.559-146.838,118.968-44.419,44.8-84.907,93.642-119.012,146.748a793.971,793.971,0,0,0-46.633,82.256A677.23,677.23,0,0,0,180,707.375a553.047,553.047,0,0,0-21.6,91.953c-4.43,31.179-5.961,62.885-3.086,94.275,2.8,31.362,9.786,62.436,21.84,91.559a240.459,240.459,0,0,0,130.3,130.25c29.144,12.044,60.243,19.055,91.631,21.874,31.442,2.9,63.172,1.4,94.376-3.031a554.7,554.7,0,0,0,92.081-21.533,673.836,673.836,0,0,0,87.729-35.422,800.494,800.494,0,0,0,82.373-46.57C808.87,996.652,857.8,956.224,902.664,911.839Zm.081.081c-44.815,44.435-93.717,84.944-146.865,119.1a798.387,798.387,0,0,1-82.375,46.7,678.483,678.483,0,0,1-87.753,35.554,554.949,554.949,0,0,1-92.162,21.691c-31.254,4.452-63.065,6.008-94.56,3.135-31.466-2.792-62.669-9.752-91.948-21.823A240.506,240.506,0,0,1,176.2,985.556c-12.081-29.254-19.1-60.433-21.891-91.875-2.875-31.5-1.346-63.252,3.111-94.511a551.873,551.873,0,0,1,21.655-92.111,677.787,677.787,0,0,1,35.555-87.738,801.256,801.256,0,0,1,46.715-82.334c34.156-53.16,74.7-102.05,119.168-146.855,44.866-44.409,93.822-84.891,147.023-118.993a802.015,802.015,0,0,1,82.426-46.65,678.93,678.93,0,0,1,87.809-35.5,555.784,555.784,0,0,1,92.16-21.611c31.256-4.428,63.04-5.957,94.533-3.058,31.468,2.822,62.645,9.806,91.87,21.9a240.681,240.681,0,0,1,130.723,130.646c12.081,29.2,19.07,60.353,21.864,91.8,2.875,31.468,1.347,63.2-3.11,94.431a554.029,554.029,0,0,1-21.655,92.06,677.4,677.4,0,0,1-35.556,87.685,795.81,795.81,0,0,1-46.715,82.307C987.7,818.251,947.19,867.115,902.745,911.92Z" transform="translate(-57.9 -68.932)" opacity="0.501" fill="url(#linear-gradient-4)"/><path id="Path_70211" data-name="Path 70211" d="M560.85,570.3Q506.762,624.421,455.5,681.256c-34.1,37.927-67.153,76.8-98.648,116.939-31.415,40.166-61.537,81.44-88.045,125.005-13.162,21.823-25.531,44.2-35.24,67.787-4.826,11.782-8.94,23.93-11.1,36.45a69.4,69.4,0,0,0-.819,18.975,36.673,36.673,0,0,0,2.347,9.172,25.565,25.565,0,0,0,5.172,7.854,26.055,26.055,0,0,0,7.859,5.166,36.47,36.47,0,0,0,9.179,2.346,69.332,69.332,0,0,0,18.965-.844c12.556-2.187,24.688-6.3,36.479-11.123,23.58-9.723,45.974-22.085,67.787-35.237,43.575-26.513,84.881-56.637,125.051-88.052,40.12-31.495,79.024-64.545,116.954-98.65s74.883-69.289,110.993-105.316q54.085-54.122,105.348-110.93c34.1-37.928,67.155-76.8,98.674-116.888,31.415-40.139,61.537-81.411,88.045-124.952,13.162-21.8,25.534-44.171,35.24-67.734,4.826-11.754,8.916-23.9,11.106-36.4a68.889,68.889,0,0,0,.816-18.9,36.792,36.792,0,0,0-2.32-9.092,23.011,23.011,0,0,0-12.9-12.889,35.848,35.848,0,0,0-9.1-2.319,69,69,0,0,0-18.912.817c-12.53,2.16-24.664,6.272-36.452,11.069C958.4,253.182,936,265.545,914.163,278.67c-43.6,26.46-84.932,56.531-125.13,87.921-40.17,31.441-79.077,64.465-117.058,98.516Q614.959,516.152,560.85,570.3Zm-.081-.078q54.126-54.12,110.94-105.4c37.93-34.105,76.808-67.206,116.927-98.728,40.173-31.441,81.452-61.592,125.052-88.159,21.84-13.2,44.26-25.592,67.894-35.342,11.815-4.85,24-8.989,36.637-11.176a69.85,69.85,0,0,1,19.2-.843,37.563,37.563,0,0,1,9.391,2.4,23.875,23.875,0,0,1,13.453,13.442,37.22,37.22,0,0,1,2.4,9.382,69.747,69.747,0,0,1-.846,19.187c-2.189,12.624-6.33,24.8-11.183,36.608-9.76,23.614-22.129,46.044-35.318,67.864-26.562,43.593-56.71,84.893-88.152,125.032-31.519,40.113-64.62,78.988-98.752,116.913s-69.345,74.849-105.428,110.93q-54.164,54.043-111.07,105.292C573.93,871.7,535.026,904.75,494.879,936.245c-40.2,31.417-81.529,61.514-125.155,88.027-21.84,13.179-44.261,25.539-67.894,35.265-11.816,4.823-23.976,8.959-36.611,11.122a69.376,69.376,0,0,1-19.123.817,37.758,37.758,0,0,1-9.31-2.372,23.679,23.679,0,0,1-13.3-13.31,36.6,36.6,0,0,1-2.374-9.3,69.311,69.311,0,0,1,.845-19.108c2.19-12.6,6.331-24.773,11.157-36.555,9.733-23.616,22.129-45.99,35.318-67.813,26.561-43.566,56.71-84.837,88.151-124.979,31.52-40.112,64.621-78.961,98.753-116.886q51.2-56.93,105.428-110.932Z" transform="translate(-57.9 -68.932)" fill="url(#linear-gradient-5)"/></g></g></svg>